<svg id="Capa_1" data-name="Capa 1" xmlns="http://www.w3.org/2000/svg" xmlns:xlink="http://www.w3.org/1999/xlink" viewBox="0 0 410 135"><defs><style>.cls-1{fill:url(#Degradado_sin_nombre_5);}.cls-2{fill:url(#Degradado_sin_nombre_2);}.cls-3{fill:url(#Degradado_sin_nombre_3);}.cls-4{fill:#fff;}</style><linearGradient id="Degradado_sin_nombre_5" x1="13.06" y1="67.16" x2="112.43" y2="67.16" gradientUnits="userSpaceOnUse"><stop offset="0" stop-color="#5ca8ad"/><stop offset="0.02" stop-color="#5ca9ad"/><stop offset="0.02" stop-color="#5da9ae"/><stop offset="0.03" stop-color="#5daaae"/><stop offset="0.04" stop-color="#5eaaaf"/><stop offset="0.05" stop-color="#5eabaf"/><stop offset="0.05" stop-color="#5fabaf"/><stop offset="0.06" stop-color="#5facb0"/><stop offset="0.07" stop-color="#5facb0"/><stop offset="0.08" stop-color="#60adb1"/><stop offset="0.09" stop-color="#60adb1"/><stop offset="0.09" stop-color="#60aeb1"/><stop offset="0.1" stop-color="#61aeb2"/><stop offset="0.11" stop-color="#61afb2"/><stop offset="0.12" stop-color="#62afb3"/><stop offset="0.13" stop-color="#62b0b3"/><stop offset="0.13" stop-color="#62b0b3"/><stop offset="0.14" stop-color="#63b1b4"/><stop offset="0.15" stop-color="#63b1b4"/><stop offset="0.16" stop-color="#64b2b5"/><stop offset="0.16" stop-color="#64b2b5"/><stop offset="0.17" stop-color="#64b3b5"/><stop offset="0.18" stop-color="#65b3b6"/><stop offset="0.19" stop-color="#65b4b6"/><stop offset="0.2" stop-color="#65b4b7"/><stop offset="0.2" stop-color="#66b5b7"/><stop offset="0.21" stop-color="#66b5b7"/><stop offset="0.22" stop-color="#67b6b8"/><stop offset="0.23" stop-color="#67b6b8"/><stop offset="0.23" stop-color="#67b7b9"/><stop offset="0.24" stop-color="#68b7b9"/><stop offset="0.25" stop-color="#68b8b9"/><stop offset="0.26" stop-color="#69b8ba"/><stop offset="0.27" stop-color="#69b9ba"/><stop offset="0.27" stop-color="#69b9ba"/><stop offset="0.28" stop-color="#6ababb"/><stop offset="0.29" stop-color="#6ababb"/><stop offset="0.3" stop-color="#6abbbc"/><stop offset="0.3" stop-color="#6bbbbc"/><stop offset="0.31" stop-color="#6bbcbc"/><stop offset="0.32" stop-color="#6cbcbd"/><stop offset="0.33" stop-color="#6cbdbd"/><stop offset="0.34" stop-color="#6cbdbe"/><stop offset="0.34" stop-color="#6dbebe"/><stop offset="0.35" stop-color="#6dbebe"/><stop offset="0.36" stop-color="#6ebfbf"/><stop offset="0.37" stop-color="#6ebfbf"/><stop offset="0.38" stop-color="#6ec0c0"/><stop offset="0.38" stop-color="#6fc0c0"/><stop offset="0.39" stop-color="#6fc1c0"/><stop offset="0.4" stop-color="#6fc1c1"/><stop offset="0.41" stop-color="#70c2c1"/><stop offset="0.41" stop-color="#70c2c2"/><stop offset="0.42" stop-color="#71c3c2"/><stop offset="0.43" stop-color="#71c3c2"/><stop offset="0.44" stop-color="#71c4c3"/><stop offset="0.45" stop-color="#72c4c3"/><stop offset="0.45" stop-color="#72c5c4"/><stop offset="0.46" stop-color="#73c5c4"/><stop offset="0.47" stop-color="#73c6c4"/><stop offset="0.48" stop-color="#73c6c5"/><stop offset="0.48" stop-color="#74c7c5"/><stop offset="0.49" stop-color="#74c7c6"/><stop offset="0.5" stop-color="#74c8c6"/><stop offset="0.51" stop-color="#75c8c6"/><stop offset="0.52" stop-color="#75c9c7"/><stop offset="0.52" stop-color="#76c9c7"/><stop offset="0.53" stop-color="#76cac7"/><stop offset="0.54" stop-color="#76cac8"/><stop offset="0.55" stop-color="#77cbc8"/><stop offset="0.55" stop-color="#77cbc9"/><stop offset="0.56" stop-color="#78ccc9"/><stop offset="0.57" stop-color="#78ccc9"/><stop offset="0.58" stop-color="#78cdca"/><stop offset="0.59" stop-color="#79cdca"/><stop offset="0.59" stop-color="#79cecb"/><stop offset="0.6" stop-color="#79cecb"/><stop offset="0.61" stop-color="#7acfcb"/><stop offset="0.62" stop-color="#7acfcc"/><stop offset="0.63" stop-color="#7bd0cc"/><stop offset="0.63" stop-color="#7bd0cd"/><stop offset="0.64" stop-color="#7bd1cd"/><stop offset="0.65" stop-color="#7cd1cd"/><stop offset="0.66" stop-color="#7cd2ce"/><stop offset="0.66" stop-color="#7dd2ce"/><stop offset="0.67" stop-color="#7dd3cf"/><stop offset="0.68" stop-color="#7dd3cf"/><stop offset="0.69" stop-color="#7ed4cf"/><stop offset="0.7" stop-color="#7ed5d0"/><stop offset="0.7" stop-color="#7ed5d0"/><stop offset="0.71" stop-color="#7fd6d1"/><stop offset="0.72" stop-color="#7fd6d1"/><stop offset="0.73" stop-color="#80d7d1"/><stop offset="0.73" stop-color="#80d7d2"/><stop offset="0.74" stop-color="#80d8d2"/><stop offset="0.75" stop-color="#81d8d3"/><stop offset="0.76" stop-color="#81d9d3"/><stop offset="0.77" stop-color="#82d9d3"/><stop offset="0.77" stop-color="#82dad4"/><stop offset="0.78" stop-color="#82dad4"/><stop offset="0.79" stop-color="#83dbd5"/><stop offset="0.8" stop-color="#83dbd5"/><stop offset="0.8" stop-color="#83dcd5"/><stop offset="0.81" stop-color="#84dcd6"/><stop offset="0.82" stop-color="#84ddd6"/><stop offset="0.83" stop-color="#85ddd6"/><stop offset="0.84" stop-color="#85ded7"/><stop offset="0.84" stop-color="#85ded7"/><stop offset="0.85" stop-color="#86dfd8"/><stop offset="0.86" stop-color="#86dfd8"/><stop offset="0.87" stop-color="#87e0d8"/><stop offset="0.88" stop-color="#87e0d9"/><stop offset="0.88" stop-color="#87e1d9"/><stop offset="0.89" stop-color="#88e1da"/><stop offset="0.9" stop-color="#88e2da"/><stop offset="0.91" stop-color="#88e2da"/><stop offset="0.91" stop-color="#89e3db"/><stop offset="0.92" stop-color="#89e3db"/><stop offset="0.93" stop-color="#8ae4dc"/><stop offset="0.94" stop-color="#8ae4dc"/><stop offset="0.95" stop-color="#8ae5dc"/><stop offset="0.95" stop-color="#8be5dd"/><stop offset="0.96" stop-color="#8be6dd"/><stop offset="0.97" stop-color="#8ce6de"/><stop offset="0.98" stop-color="#8ce7de"/><stop offset="0.98" stop-color="#8ce7de"/><stop offset="1" stop-color="#8de8df"/></linearGradient><linearGradient id="Degradado_sin_nombre_2" x1="34.66" y1="48.34" x2="44.46" y2="48.34" gradientUnits="userSpaceOnUse"><stop offset="0" stop-color="#67b6b8"/><stop offset="0.13" stop-color="#67b6b8"/><stop offset="0.25" stop-color="#68b7b9"/><stop offset="0.38" stop-color="#68b8b9"/><stop offset="0.5" stop-color="#69b9ba"/><stop offset="0.63" stop-color="#69b9bb"/><stop offset="0.75" stop-color="#6ababb"/><stop offset="0.88" stop-color="#6bbbbc"/><stop offset="1" stop-color="#6bbcbc"/></linearGradient><linearGradient id="Degradado_sin_nombre_3" x1="62.85" y1="35.26" x2="68.57" y2="35.26" gradientUnits="userSpaceOnUse"><stop offset="0" stop-color="#75c8c6"/><stop offset="0.25" stop-color="#75c9c6"/><stop offset="0.5" stop-color="#76c9c7"/><stop offset="0.75" stop-color="#76cac8"/><stop offset="1" stop-color="#77cbc9"/></linearGradient></defs><path class="cls-1" d="M111.89,45.07c-.9-3.17-2.86-6.13-6.94-9s-9-2.86-12.26-2.45c-4.06.51-8.18,3.68-9.81,5.72s-4.09,4.5-6.13,4.91S73.07,43.44,71,43a23.59,23.59,0,0,0-14.31,2A26,26,0,0,0,49,51.61a8.42,8.42,0,0,1-5.31,3.27,11.52,11.52,0,0,1-3.27.41c-1.19,0-2.11-.41-3.68-.41-3.68,0-7.36,0-11.85,2.45s-7.41,6.62-9.4,9.81-3.27,10.63-1.64,15.94a21.92,21.92,0,0,0,4.09,8.17,26.11,26.11,0,0,0,6.54,5.31,24.62,24.62,0,0,0,15.12,2.87c4.9-.82,6.95-2.46,10.22-4.91a10.16,10.16,0,0,1,9.4-1.22c2.45.81,11.06,6.86,15.52,7.35,3.68.41,7.36.41,11-1.22A21.44,21.44,0,0,0,96,90.84c1.38-2.23,3.67-6.94,3.67-11,0-1.24-.41-2.72-.41-4.09A10.85,10.85,0,0,1,99.63,72a23.23,23.23,0,0,1,3.27-4.9c2.49-2.49,4.91-5.31,5.72-6.13a14.68,14.68,0,0,0,3.27-5.72A24.59,24.59,0,0,0,111.89,45.07Z"/><circle class="cls-2" cx="39.56" cy="48.34" r="4.9"/><circle class="cls-3" cx="65.71" cy="35.26" r="2.86"/><path class="cls-4" d="M132.49,54.69H137l5.6,15.8c.7,2,1.37,4.11,2.08,6.17h.18c.71-2,1.34-4.13,2.06-6.15l5.65-15.76h4.53L157,84.31h-3.49L153.58,68c0-2.57.31-6.12.51-8.73h-.18L151.54,66l-5.62,15.26h-2.49L137.89,66l-2.31-6.74h-.18c.18,2.61.45,6.16.45,8.73l-.06,16.26h-3.41Z"/><path class="cls-4" d="M171.28,54.83h4.24l9.88,29.57-4,0-5.09-16.51c-1.05-3.3-2-6.55-2.92-10h-.18c-.93,3.42-1.89,6.64-3,9.94L165,84.34l-3.83,0Zm-4.8,17.52,13.59,0v3l-13.59,0Z"/><path class="cls-4" d="M189.5,54.89h3.76l0,14.82h.12L205.66,55h4.25l-9.29,11.22L211.23,84.5H207l-8.75-15.38-5.09,6,0,9.34-3.76,0Z"/><path class="cls-4" d="M215.56,55l3.76,0,0,12.36,13.74,0,0-12.37,3.76,0-.11,29.53H233L233,70.69l-13.74,0,0,13.89h-3.76Z"/><path class="cls-4" d="M251,55.11h4.24l9.89,29.57h-4L256,68.17c-1-3.31-2-6.56-2.92-10h-.18c-.92,3.42-1.88,6.65-3,9.94L244.7,84.62h-3.82Zm-4.8,17.52,13.6.05v3l-13.6-.05Z"/><path class="cls-4" d="M269.2,55.17l3.76,0-.1,26.35,12.89,0v3.18l-16.65-.05Z"/><path class="cls-4" d="M289.58,72.58l.06-17.33h3.76l-.07,17.44c0,7.1,3,9.34,6.83,9.35s7-2.2,7-9.3l.06-17.44h3.61l-.07,17.34c0,9.48-4.62,12.72-10.64,12.7S289.54,82.06,289.58,72.58Z"/><path class="cls-4" d="M325.56,72.2l10.31,0v2.84l-10.31,0Z"/><path class="cls-4" d="M356.54,55.48l4.24,0,9.88,29.57-4,0-5.09-16.51c-1-3.31-2-6.55-2.92-10h-.18c-.93,3.42-1.88,6.64-3,9.94L350.27,85h-3.83ZM351.74,73l13.6,0v3l-13.6,0Z"/><path class="cls-4" d="M372.73,70.33c0-9.52,5.66-15.31,13.16-15.28A11,11,0,0,1,394,58.72l-2.07,2.44a8,8,0,0,0-6-2.81c-5.58,0-9.3,4.54-9.33,11.9s3.5,12.09,9.1,12.11a8.86,8.86,0,0,0,6.86-3.3l2.05,2.37a11.4,11.4,0,0,1-9.08,4.23C378.19,85.63,372.69,79.92,372.73,70.33Z"/></svg>